<svg width="512" height="512" viewBox="0 0 512 512" fill="none" xmlns="http://www.w3.org/2000/svg">
  <rect width="512" height="512" rx="64" fill="#E0F2FE"/>
  <rect x="48" y="64" width="416" height="384" rx="40" fill="#FFFFFF"/>
  <rect x="96" y="120" width="320" height="224" rx="28" fill="#F0F9FF" stroke="#BAE6FD" stroke-width="10"/>
  <path d="M132 312L208 228L272 284L320 244L380 312V330H132V312Z" fill="#38BDF8" opacity="0.9"/>
  <circle cx="196" cy="176" r="28" fill="#0EA5E9" opacity="0.9"/>
  <rect x="128" y="368" width="256" height="56" rx="20" fill="#0F172A" opacity="0.92"/>
  <path d="M194.56 405V385.64H205.84C209.387 385.64 212.147 386.627 214.12 388.6C216.093 390.547 217.08 393.267 217.08 396.76C217.08 400.2 216.093 402.92 214.12 404.92C212.147 406.893 209.387 407.88 205.84 407.88H197.92V405H194.56ZM197.92 402.84H205.68C208.213 402.84 210.173 402.28 211.56 401.16C212.947 400.04 213.64 398.573 213.64 396.76C213.64 394.893 212.947 393.427 211.56 392.36C210.173 391.267 208.213 390.72 205.68 390.72H197.92V402.84Z" fill="#F8FAFC"/>
  <path d="M227.457 405.36C225.084 405.36 223.257 404.707 221.977 403.4C220.697 402.067 220.057 400.173 220.057 397.72V389.56H223.297V397.48C223.297 399.16 223.684 400.427 224.457 401.28C225.257 402.133 226.391 402.56 227.857 402.56C229.484 402.56 230.777 402.067 231.737 401.08C232.724 400.093 233.217 398.72 233.217 396.96V389.56H236.457V405H233.377V400.84L233.897 402.08C233.124 403.12 232.111 403.907 230.857 404.44C229.631 404.973 228.497 405.28 227.457 405.36Z" fill="#F8FAFC"/>
  <path d="M247.826 405.2C246.146 405.2 244.519 404.973 242.946 404.52C241.372 404.067 240.132 403.493 239.226 402.8L240.586 400.24C241.466 400.853 242.546 401.36 243.826 401.76C245.132 402.133 246.426 402.32 247.706 402.32C249.306 402.32 250.452 402.093 251.146 401.64C251.839 401.187 252.186 400.56 252.186 399.76C252.186 399.173 251.986 398.733 251.586 398.44C251.212 398.12 250.719 397.893 250.106 397.76C249.492 397.627 248.812 397.52 248.066 397.44C247.319 397.36 246.559 397.267 245.786 397.16C245.039 397.027 244.359 396.813 243.746 396.52C243.132 396.227 242.626 395.813 242.226 395.28C241.852 394.747 241.666 394.013 241.666 393.08C241.666 392.093 241.946 391.213 242.506 390.44C243.092 389.64 243.919 389.027 244.986 388.6C246.079 388.147 247.399 387.92 248.946 387.92C250.119 387.92 251.306 388.067 252.506 388.36C253.706 388.627 254.706 389.013 255.506 389.52L254.106 392.08C253.252 391.52 252.372 391.147 251.466 390.96C250.559 390.747 249.652 390.64 248.746 390.64C247.252 390.64 246.132 390.88 245.386 391.36C244.639 391.813 244.266 392.427 244.266 393.2C244.266 393.84 244.452 394.32 244.826 394.64C245.226 394.96 245.732 395.2 246.346 395.36C246.986 395.493 247.679 395.613 248.426 395.72C249.172 395.8 249.919 395.907 250.666 396.04C251.439 396.147 252.132 396.347 252.746 396.64C253.386 396.907 253.892 397.307 254.266 397.84C254.666 398.373 254.866 399.093 254.866 400C254.866 400.987 254.572 401.867 253.986 402.64C253.399 403.387 252.546 403.973 251.426 404.4C250.332 404.8 249.132 405.067 247.826 405.2Z" fill="#F8FAFC"/>
  <path d="M265.043 405.2C263.363 405.2 261.736 404.973 260.163 404.52C258.59 404.067 257.35 403.493 256.443 402.8L257.803 400.24C258.683 400.853 259.763 401.36 261.043 401.76C262.35 402.133 263.643 402.32 264.923 402.32C266.523 402.32 267.67 402.093 268.363 401.64C269.056 401.187 269.403 400.56 269.403 399.76C269.403 399.173 269.203 398.733 268.803 398.44C268.43 398.12 267.936 397.893 267.323 397.76C266.71 397.627 266.03 397.52 265.283 397.44C264.536 397.36 263.776 397.267 263.003 397.16C262.256 397.027 261.576 396.813 260.963 396.52C260.35 396.227 259.843 395.813 259.443 395.28C259.07 394.747 258.883 394.013 258.883 393.08C258.883 392.093 259.163 391.213 259.723 390.44C260.31 389.64 261.136 389.027 262.203 388.6C263.296 388.147 264.616 387.92 266.163 387.92C267.336 387.92 268.523 388.067 269.723 388.36C270.923 388.627 271.923 389.013 272.723 389.52L271.323 392.08C270.47 391.52 269.59 391.147 268.683 390.96C267.776 390.747 266.87 390.64 265.963 390.64C264.47 390.64 263.35 390.88 262.603 391.36C261.856 391.813 261.483 392.427 261.483 393.2C261.483 393.84 261.67 394.32 262.043 394.64C262.443 394.96 262.95 395.2 263.563 395.36C264.203 395.493 264.896 395.613 265.643 395.72C266.39 395.8 267.136 395.907 267.883 396.04C268.656 396.147 269.35 396.347 269.963 396.64C270.603 396.907 271.11 397.307 271.483 397.84C271.883 398.373 272.083 399.093 272.083 400C272.083 400.987 271.79 401.867 271.203 402.64C270.616 403.387 269.763 403.973 268.643 404.4C267.55 404.8 266.35 405.067 265.043 405.2Z" fill="#F8FAFC"/>
  <path d="M281.101 405V385.64H284.461V405H281.101Z" fill="#F8FAFC"/>
  <path d="M294.531 405V390.72H288.971V387.92H303.411V390.72H297.891V405H294.531Z" fill="#F8FAFC"/>
  <path d="M307.124 405V385.64H310.484V405H307.124Z" fill="#F8FAFC"/>
</svg>
